<?xml version="1.0" standalone="no"?>
<!DOCTYPE svg PUBLIC "-//W3C//DTD SVG 1.1//EN" "http://www.w3.org/Graphics/SVG/1.1/DTD/svg11.dtd">
<svg xmlns="http://www.w3.org/2000/svg" xmlns:xlink="http://www.w3.org/1999/xlink" version="1.0" id="Layer_1" x="0px" y="0px" viewBox="0 0 1572 239.6" style="enable-background:new 0 0 1572 239.6;" xml:space="preserve" width="1572" height="239.60000610351562">
<style type="text/css">
	.st0{fill:#8E817B;}
</style>
<g>
	<g>
		<path class="st0" d="M983.4,230.6c-14.9,0-28.2-3.6-39.8-10.9c-11.6-7.2-20.6-17.3-27.1-30c-6.5-12.8-9.7-27.5-9.7-44.1    c0-15.8,3.3-29.9,9.9-42.2c6.6-12.3,15.6-22,27.1-29c11.5-7,24.6-10.5,39.3-10.5c14.3,0,27,3.2,38.1,9.6c11.1,6.4,19.9,15,26.3,26    c6.4,10.9,9.5,23.4,9.2,37.5c0,1.9,0,4.2,0,6.7c0,2.5-0.1,5.1-0.3,8H924c0.4,12.8,3.2,24,8.3,33.6c5.1,9.6,12,17.2,20.8,22.6    c8.8,5.4,18.8,8.1,30,8.1c13.6,0,25.4-2.9,35.4-8.8c9.9-5.8,17.2-14.2,21.7-25l13.6,5.5c-5.8,13.8-14.9,24.5-27.3,32    C1014.3,226.9,999.9,230.6,983.4,230.6z M1039.6,137.5c0.4-11.5-1.7-21.6-6.5-30.5c-4.8-8.9-11.5-15.8-20.1-20.8    c-8.7-5-18.8-7.5-30.5-7.5c-10.6,0-20.1,2.5-28.6,7.6c-8.4,5.1-15.3,12.1-20.6,20.9c-5.3,8.9-8.3,18.9-8.9,30.2H1039.6z"/>
		<path class="st0" d="M1199.8,228.3l-1-36.7c-4.3,12.3-11.5,21.9-21.4,28.7c-10,6.8-22.6,10.2-38,10.2c-11.9,0-22-1.8-30.2-5.4    c-8.2-3.6-14.5-8.7-18.8-15.3c-4.3-6.6-6.5-14.7-6.5-24.2c0-13.4,5.1-24.3,15.3-32.8c10.2-8.4,25.5-13.7,46.1-15.9l53.6-5.8v-14    c0-12.3-3.9-21.9-11.7-28.6c-7.8-6.7-18.6-10.1-32.5-10.1c-13.4,0-24.5,3.1-33.1,9.3c-8.7,6.2-14.4,15-17.2,26.5l-14.6-5.2    c4.1-14.5,11.7-25.7,22.9-33.6c11.1-7.9,25.2-11.8,42-11.8c19,0,33.8,4.7,44.3,14.1c10.5,9.4,15.7,22.5,15.7,39.1v111.3H1199.8z     M1198.9,145.2l-53.9,5.8c-15.4,1.7-26.6,5.5-33.6,11.2c-7,5.7-10.5,13.4-10.5,22.9c0,9.7,3.4,17.4,10.2,22.9    c6.8,5.5,16.6,8.3,29.4,8.3c12.5,0,23.2-2.6,32-7.8c8.8-5.2,15.4-12.4,19.8-21.7c4.4-9.3,6.7-20,6.7-32.1V145.2z"/>
		<path class="st0" d="M1334,66.1V20.6h16.2v45.4h46.4V81h-46.4v99.3c0,9.5,2.2,17,6.7,22.4c4.4,5.4,10.2,8.9,17.4,10.5    c7.1,1.6,14.6,1.7,22.4,0.2V227c-7.6,1.9-15.1,2.5-22.6,1.6c-7.5-0.9-14.2-3.3-20.3-7.3c-6.1-4-10.9-9.4-14.4-16.2    c-3.6-6.8-5.4-15.1-5.4-24.8V81h-25.3V66.1H1334z"/>
		<path class="st0" d="M740.2,228.3h16.2v-84.1c0-21.4,4.7-37.8,14-49c9.3-11.2,22-16.9,38-16.9c15.6,0,27.5,5.1,35.9,15.3    c8.3,10.2,12.5,24.9,12.5,44.1v90.6h16.9v-92.2c0-16.4-2.7-30-8-40.7c-5.3-10.7-12.6-18.7-21.9-23.9c-9.3-5.2-19.9-7.8-31.8-7.8    c-13,0-24.3,2.9-34.1,8.8c-9.7,5.8-16.9,14.4-21.4,25.6V10.1h-16.2V228.3z"/>
		<rect x="1258.5" y="10.1" class="st0" width="16.2" height="218.2"/>
		<path class="st0" d="M1429.4,10.1v218.2h16.2v-84.1c0-21.4,4.7-37.8,14-49c9.3-11.2,22-16.9,38-16.9c15.6,0,27.5,5.1,35.9,15.3    c8.3,10.2,12.5,24.9,12.5,44.1v90.6h16.9v-92.2c0-16.4-2.7-30-8-40.7c-5.3-10.7-12.6-18.7-21.9-23.9c-9.3-5.2-19.9-7.8-31.8-7.8    c-13,0-24.3,2.9-34.1,8.8c-9.7,5.8-16.9,14.4-21.4,25.6V10.1H1429.4z"/>
	</g>
	<g>
		<path class="st0" d="M89.2,228.3H9v-8.4l12.9-4.8c4.7-1.9,8-4.1,9.7-6.6c1.7-2.5,2.6-6.3,2.6-11.5v-83.1c0-6.9-1-11.9-2.9-14.9    c-1.9-3-5.2-5-9.7-5.8l-12-2.6v-7.8l45.9-20l7.4,4.5V99c4.5-6.7,9.6-12.7,15.2-18.1c5.6-5.4,11.9-9.8,18.9-13.1    c7-3.3,14.6-5,22.8-5c12.7,0,23.2,3,31.5,9.1c8.3,6,14.3,14.4,17.9,25.2c4.1-6,8.9-11.6,14.6-16.8c5.6-5.2,12-9.4,19.1-12.6    c7.1-3.2,14.7-4.8,22.6-4.8c16.8,0,30,5.5,39.4,16.5c9.5,11,14.2,26.3,14.2,45.9V197c0,5.4,0.8,9.3,2.4,11.6    c1.6,2.4,4.8,4.5,9.5,6.5l12.9,4.8v8.4h-80.5v-8.4l12.6-4.5c4.3-1.7,7.3-3.8,8.9-6.3c1.6-2.5,2.4-6.5,2.4-12.1v-65    c0-28.7-11.4-43-34.3-43c-7.1,0-14.1,2.2-21,6.6c-6.9,4.4-13.4,10.7-19.4,18.9c0.2,1.5,0.4,3.2,0.5,5c0.1,1.8,0.2,3.7,0.2,5.7V197    c0,5.8,0.6,9.9,1.9,12.3c1.3,2.4,4,4.4,8.1,6.1l12.6,4.5v8.4h-77.9v-8.4l12.6-4.5c4.3-1.7,7.2-3.8,8.7-6.3    c1.5-2.5,2.3-6.5,2.3-12.1v-65c0-14-2.8-24.7-8.4-32c-5.6-7.3-14.1-11-25.5-11c-8,0-15.6,2.1-22.8,6.3    c-7.2,4.2-13.6,10.1-19.2,17.6V197c0,5.6,0.8,9.6,2.3,12.1c1.5,2.5,4.4,4.6,8.7,6.3l12.3,4.5V228.3z"/>
		<path class="st0" d="M469.4,102.9c-6.7-12.7-16-22.6-28-29.6c-12-7-26-10.5-42.2-10.5c-11.6,0-22.3,2.1-32,6.1    c-9.7,4.1-18.2,10-25.5,17.6c-7.3,7.7-13,16.6-17,26.8c-4,10.2-6,21.5-6,33.8c0,17,3.3,31.8,10,44.5c6.7,12.6,16.1,22.4,28.3,29.4    c12.2,7,26.2,10.5,42.2,10.5c15.5,0,29.3-3.6,41.4-10.8c12.1-7.2,21.6-17.1,28.5-29.7c6.9-12.6,10.3-27.1,10.3-43.5    C479.5,130.5,476.1,115.6,469.4,102.9z M432.6,197.9c-8.2,12.3-19.3,18.4-33.3,18.4c-14,0-25.2-6.2-33.5-18.6    c-8.3-12.4-12.4-29.3-12.4-50.6s4.1-38.2,12.4-50.6c8.3-12.4,19.5-18.6,33.5-18.6c14,0,25.1,6.2,33.3,18.6    c8.2,12.4,12.3,29.4,12.3,50.9C444.9,168.8,440.8,185.7,432.6,197.9z"/>
		<path class="st0" d="M563.6,231.6c-10.3,0-20.7-1.5-31.2-4.5c-10.5-3-19.5-7.2-27-12.6l3.9-37.5h8.7l7.4,15.2    c4.3,7.8,9.8,13.7,16.5,17.9c6.7,4.2,14.4,6.3,23.3,6.3c9.5,0,17.2-2.3,23.1-6.8c5.9-4.5,8.9-10.8,8.9-18.8    c0-4.5-1.1-8.6-3.4-12.3c-2.3-3.7-6.4-7.4-12.4-11.2c-6-3.8-14.6-7.8-25.5-12.1c-16.4-6.5-28.3-13.7-35.9-21.7    c-7.5-8-11.3-17-11.3-27.2c0-13.1,5.3-23.7,15.8-31.7c10.6-8,24.5-12,41.7-12c9.1,0,18.4,1,28,3.1c9.6,2.1,18.1,4.8,25.4,8.2    l-3.6,34.9h-8.7c-2.2-4.3-4.2-7.9-6.1-10.7c-1.9-2.8-4.1-5.5-6.5-8.1c-7.1-8.2-16.5-12.3-28.1-12.3c-8.8,0-15.9,1.9-21.2,5.7    c-5.3,3.8-7.9,8.7-7.9,14.7c0,4.1,1.2,7.8,3.7,11.2c2.5,3.3,6.7,6.7,12.8,10.2c6,3.5,14.3,7.5,24.9,12.3c17.5,7.3,29.8,15,37,23.1    c7.2,8.1,10.8,17.2,10.8,27.3c0,9.7-2.6,18.3-7.9,25.7c-5.3,7.4-12.7,13.2-22.1,17.3C587.1,229.5,576.1,231.6,563.6,231.6z"/>
		<path class="st0" d="M353.5,12v19.8H445V12c-13.8-1.2-29.3-1.9-45.8-1.9C382.8,10.1,367.3,10.8,353.5,12z"/>
	</g>
</g>
</svg>